<svg width="12" height="12" viewBox="0 0 12 12" fill="none" xmlns="http://www.w3.org/2000/svg">
<path d="M10.7726 3.96971C10.632 3.82911 10.4412 3.75012 10.2423 3.75012C10.0435 3.75012 9.85274 3.82911 9.7121 3.96971L5.9996 7.68221L2.2871 3.96971C2.14565 3.8331 1.95619 3.7575 1.75955 3.75921C1.5629 3.76092 1.37479 3.83979 1.23573 3.97885C1.09668 4.11791 1.0178 4.30602 1.01609 4.50266C1.01438 4.69931 1.08998 4.88876 1.2266 5.03021L5.46935 9.27296C5.60999 9.41357 5.80072 9.49255 5.9996 9.49255C6.19847 9.49255 6.3892 9.41357 6.52985 9.27296L10.7726 5.03021C10.9132 4.88957 10.9922 4.69884 10.9922 4.49996C10.9922 4.30109 10.9132 4.11036 10.7726 3.96971Z" fill="white"/>
</svg>
