<svg width="39" height="37" viewBox="0 0 39 37" fill="none" xmlns="http://www.w3.org/2000/svg">
<path d="M12.675 3.08325H26.325C31.525 3.08325 35.75 7.09159 35.75 12.0249V24.9749C35.75 27.3464 34.757 29.6207 32.9895 31.2976C31.222 32.9745 28.8247 33.9166 26.325 33.9166H12.675C7.475 33.9166 3.25 29.9083 3.25 24.9749V12.0249C3.25 9.65344 4.24299 7.37909 6.01052 5.70221C7.77805 4.02532 10.1753 3.08325 12.675 3.08325ZM12.35 6.16659C10.7985 6.16659 9.31051 6.75132 8.21343 7.79214C7.11634 8.83297 6.5 10.2446 6.5 11.7166V25.2833C6.5 28.3512 9.11625 30.8333 12.35 30.8333H26.65C28.2015 30.8333 29.6895 30.2485 30.7866 29.2077C31.8837 28.1669 32.5 26.7552 32.5 25.2833V11.7166C32.5 8.64867 29.8837 6.16659 26.65 6.16659H12.35ZM28.0312 8.47909C28.57 8.47909 29.0866 8.68212 29.4676 9.04352C29.8485 9.40491 30.0625 9.89507 30.0625 10.4062C30.0625 10.9173 29.8485 11.4074 29.4676 11.7688C29.0866 12.1302 28.57 12.3333 28.0312 12.3333C27.4925 12.3333 26.9759 12.1302 26.5949 11.7688C26.214 11.4074 26 10.9173 26 10.4062C26 9.89507 26.214 9.40491 26.5949 9.04352C26.9759 8.68212 27.4925 8.47909 28.0312 8.47909ZM19.5 10.7916C21.6549 10.7916 23.7215 11.6037 25.2452 13.0493C26.769 14.4949 27.625 16.4555 27.625 18.4999C27.625 20.5443 26.769 22.5049 25.2452 23.9505C23.7215 25.3961 21.6549 26.2083 19.5 26.2083C17.3451 26.2083 15.2785 25.3961 13.7548 23.9505C12.231 22.5049 11.375 20.5443 11.375 18.4999C11.375 16.4555 12.231 14.4949 13.7548 13.0493C15.2785 11.6037 17.3451 10.7916 19.5 10.7916ZM19.5 13.8749C18.2071 13.8749 16.9671 14.3622 16.0529 15.2295C15.1386 16.0969 14.625 17.2733 14.625 18.4999C14.625 19.7265 15.1386 20.9029 16.0529 21.7703C16.9671 22.6376 18.2071 23.1249 19.5 23.1249C20.7929 23.1249 22.0329 22.6376 22.9471 21.7703C23.8614 20.9029 24.375 19.7265 24.375 18.4999C24.375 17.2733 23.8614 16.0969 22.9471 15.2295C22.0329 14.3622 20.7929 13.8749 19.5 13.8749Z" fill="black"/>
</svg>
