<svg width="21" height="18" viewBox="0 0 21 18" fill="none" xmlns="http://www.w3.org/2000/svg">
<path d="M0 1.42105C0 1.04417 0.138281 0.682716 0.384422 0.416217C0.630564 0.149717 0.964403 0 1.3125 0H19.6875C20.0356 0 20.3694 0.149717 20.6156 0.416217C20.8617 0.682716 21 1.04417 21 1.42105C21 1.79794 20.8617 2.15939 20.6156 2.42589C20.3694 2.69239 20.0356 2.84211 19.6875 2.84211H1.3125C0.964403 2.84211 0.630564 2.69239 0.384422 2.42589C0.138281 2.15939 0 1.79794 0 1.42105ZM0 9C0 8.62311 0.138281 8.26166 0.384422 7.99516C0.630564 7.72866 0.964403 7.57895 1.3125 7.57895H19.6875C20.0356 7.57895 20.3694 7.72866 20.6156 7.99516C20.8617 8.26166 21 8.62311 21 9C21 9.37689 20.8617 9.73834 20.6156 10.0048C20.3694 10.2713 20.0356 10.4211 19.6875 10.4211H1.3125C0.964403 10.4211 0.630564 10.2713 0.384422 10.0048C0.138281 9.73834 0 9.37689 0 9ZM0 16.5789C0 16.2021 0.138281 15.8406 0.384422 15.5741C0.630564 15.3076 0.964403 15.1579 1.3125 15.1579H19.6875C20.0356 15.1579 20.3694 15.3076 20.6156 15.5741C20.8617 15.8406 21 16.2021 21 16.5789C21 16.9558 20.8617 17.3173 20.6156 17.5838C20.3694 17.8503 20.0356 18 19.6875 18H1.3125C0.964403 18 0.630564 17.8503 0.384422 17.5838C0.138281 17.3173 0 16.9558 0 16.5789Z" fill="black"/>
</svg>
