<svg width="27" height="27" viewBox="0 0 27 27" fill="none" xmlns="http://www.w3.org/2000/svg">
<path d="M24.0469 13.5C24.0469 13.8357 23.9135 14.1576 23.6762 14.3949C23.4388 14.6323 23.1169 14.7656 22.7812 14.7656H14.7656V22.7812C14.7656 23.1169 14.6323 23.4388 14.3949 23.6762C14.1576 23.9135 13.8357 24.0469 13.5 24.0469C13.1643 24.0469 12.8424 23.9135 12.6051 23.6762C12.3677 23.4388 12.2344 23.1169 12.2344 22.7812V14.7656H4.21875C3.88309 14.7656 3.56117 14.6323 3.32382 14.3949C3.08647 14.1576 2.95312 13.8357 2.95312 13.5C2.95312 13.1643 3.08647 12.8424 3.32382 12.6051C3.56117 12.3677 3.88309 12.2344 4.21875 12.2344H12.2344V4.21875C12.2344 3.88309 12.3677 3.56117 12.6051 3.32382C12.8424 3.08647 13.1643 2.95313 13.5 2.95312C13.8357 2.95312 14.1576 3.08647 14.3949 3.32382C14.6323 3.56117 14.7656 3.88309 14.7656 4.21875V12.2344H22.7812C23.1169 12.2344 23.4388 12.3677 23.6762 12.6051C23.9135 12.8424 24.0469 13.1643 24.0469 13.5Z" fill="white"/>
</svg>
