<svg width="18" height="18" viewBox="0 0 18 18" fill="none" xmlns="http://www.w3.org/2000/svg">
<path d="M17.2243 18L10.3443 11.1208C9.79491 11.5888 9.16316 11.9509 8.449 12.2073C7.73485 12.4636 7.01703 12.5918 6.29555 12.5918C4.53617 12.5918 3.04706 11.9828 1.82824 10.7648C0.609412 9.54617 0 8.05761 0 6.29918C0 4.54074 0.608679 3.05145 1.82604 1.83131C3.04413 0.610436 4.5325 0 6.29116 0C8.05054 0 9.54038 0.609338 10.7607 1.82801C11.981 3.04669 12.5911 4.53598 12.5911 6.29588C12.5911 7.05902 12.456 7.79762 12.1857 8.51169C11.9147 9.22576 11.5594 9.83656 11.1199 10.3441L18 17.2222L17.2243 18ZM6.29555 11.4921C7.75316 11.4921 8.98407 10.9904 9.98828 9.98706C10.9918 8.9837 11.4935 7.75294 11.4935 6.29478C11.4935 4.83735 10.9918 3.60696 9.98828 2.6036C8.9848 1.60024 7.75426 1.09857 6.29665 1.09857C4.83904 1.09857 3.60813 1.60024 2.60392 2.6036C1.60044 3.60696 1.0987 4.83735 1.0987 6.29478C1.0987 7.75221 1.60044 8.98261 2.60392 9.98596C3.6074 10.9893 4.83794 11.4921 6.29555 11.4921Z" fill="black"/>
</svg>
