<svg width="52" height="32" viewBox="0 0 52 32" fill="none" xmlns="http://www.w3.org/2000/svg">
<path d="M20.8 22.8571L34.294 16L20.8 9.14286V22.8571ZM50.856 4.96C51.194 6.03429 51.428 7.47429 51.584 9.30286C51.766 11.1314 51.844 12.7086 51.844 14.08L52 16C52 21.0057 51.584 24.6857 50.856 27.04C50.206 29.0971 48.698 30.4229 46.358 30.9943C45.136 31.2914 42.9 31.4971 39.468 31.6343C36.088 31.7943 32.994 31.8629 30.134 31.8629L26 32C15.106 32 8.32 31.6343 5.642 30.9943C3.302 30.4229 1.794 29.0971 1.144 27.04C0.806 25.9657 0.572 24.5257 0.416 22.6971C0.234 20.8686 0.156 19.2914 0.156 17.92L0 16C0 10.9943 0.416 7.31429 1.144 4.96C1.794 2.90286 3.302 1.57714 5.642 1.00571C6.864 0.708572 9.1 0.502857 12.532 0.365714C15.912 0.205714 19.006 0.137143 21.866 0.137143L26 0C36.894 0 43.68 0.365714 46.358 1.00571C48.698 1.57714 50.206 2.90286 50.856 4.96Z" fill="black"/>
</svg>
